<?xml version="1.0" encoding="UTF-8"?>
<svg id="Layer_1" data-name="Layer 1" xmlns="http://www.w3.org/2000/svg" viewBox="0 0 537.2 275.35">
  <defs>
    <style>
      .cls-1 {
        fill: #000;
      }

      .cls-1, .cls-2, .cls-3 {
        stroke-width: 0px;
      }

      .cls-2 {
        fill: #7d0f10;
      }

      .cls-3 {
        fill: #af0c15;
      }
    </style>
  </defs>
  <g>
    <polygon class="cls-2" points="131.93 152.83 131.11 152.24 126.16 137.24 121.21 152.24 120.39 152.83 113.52 152.83 112.7 152.23 103.44 123.43 104.26 122.3 111.8 122.3 112.62 122.92 117.2 138.16 122.39 122.97 122.55 123.03 123.21 122.3 129.11 122.3 129.92 122.89 135.12 138.12 139.69 122.92 140.52 122.3 148.06 122.3 148.88 123.43 139.61 152.23 138.79 152.83 131.93 152.83"/>
    <polygon class="cls-2" points="151.42 152.66 150.56 151.8 150.56 123.17 151.42 122.3 173.07 122.3 173.93 123.17 173.93 129.36 173.07 130.22 159.4 130.22 159.4 133.72 171.21 133.72 172.08 134.58 172.08 140.64 171.21 141.5 159.4 141.5 159.4 144.75 173.07 144.75 173.93 145.61 173.93 151.8 173.07 152.66 151.42 152.66"/>
    <polygon class="cls-2" points="177.11 152.66 176.25 151.8 176.25 123.17 177.11 122.3 184.23 122.3 185.09 123.17 185.09 144.66 198.38 144.66 199.24 145.53 199.24 151.8 198.38 152.66 177.11 152.66"/>
    <path class="cls-2" d="M214.8,153.25c-9.13,0-16.02-6.78-16.02-15.77s6.89-15.77,16.02-15.77c8.16,0,14.27,5.31,15.22,13.23l-.86.96h-7.29l-.84-.67c-.74-3.31-2.97-5.14-6.28-5.14-4.15,0-7.05,3.04-7.05,7.39s2.9,7.39,7.05,7.39c3.31,0,5.53-1.82,6.28-5.14l.84-.67h7.29l.86.96c-.94,7.91-7.06,13.23-15.22,13.23Z"/>
    <path class="cls-2" d="M248.02,153.25c-8.98,0-16.02-6.93-16.02-15.77s7.04-15.77,16.02-15.77,16.06,6.93,16.06,15.77-7.06,15.77-16.06,15.77ZM248.02,130.05c-3.98,0-7.1,3.27-7.1,7.43s3.12,7.43,7.1,7.43,7.1-3.27,7.1-7.43-3.12-7.43-7.1-7.43Z"/>
    <polygon class="cls-2" points="291.35 152.66 290.49 151.8 290.49 140.36 285.72 147.72 285.53 147.6 285 148.16 281.04 148.16 280.49 147.61 280.31 147.72 275.51 140.29 275.54 151.8 274.68 152.66 267.56 152.66 266.7 151.8 266.7 123.17 267.56 122.3 272.83 122.3 273.54 122.69 283.01 136.9 292.45 122.69 293.17 122.3 298.47 122.3 299.33 123.17 299.33 151.8 298.47 152.66 291.35 152.66"/>
    <polygon class="cls-2" points="303.52 152.66 302.66 151.8 302.66 123.17 303.52 122.3 325.17 122.3 326.03 123.17 326.03 129.36 325.17 130.22 311.5 130.22 311.5 133.72 323.32 133.72 324.18 134.58 324.18 140.64 323.32 141.5 311.5 141.5 311.5 144.75 325.17 144.75 326.03 145.61 326.03 151.8 325.17 152.66 303.52 152.66"/>
  </g>
  <g>
    <path class="cls-1" d="M337.66,137.78v10.22h-3.26v-10.22h-4.19v-2.92h11.63v2.92h-4.17Z"/>
    <path class="cls-1" d="M356.09,141.43c0,3.82-2.99,6.84-6.97,6.84s-6.95-3.01-6.95-6.84,2.99-6.84,6.95-6.84,6.97,3.01,6.97,6.84ZM352.77,141.43c0-2.07-1.52-3.8-3.65-3.8s-3.65,1.74-3.65,3.8,1.53,3.8,3.65,3.8,3.65-1.74,3.65-3.8Z"/>
  </g>
  <g>
    <path class="cls-1" d="M376.9,141.29c0,3.82-2.99,6.84-6.97,6.84s-6.95-3.01-6.95-6.84,2.99-6.84,6.95-6.84,6.97,3.01,6.97,6.84ZM373.58,141.29c0-2.07-1.53-3.8-3.65-3.8s-3.65,1.74-3.65,3.8,1.53,3.8,3.65,3.8,3.65-1.74,3.65-3.8Z"/>
    <path class="cls-1" d="M390.79,141.73c0,4.07-2.36,6.41-6.12,6.41s-6.1-2.34-6.1-6.41v-7.01h3.28v7.07c0,2.01,1.1,3.3,2.82,3.3s2.84-1.29,2.84-3.3v-7.07h3.28v7.01Z"/>
    <path class="cls-1" d="M396.18,144.05v3.8h-3.26v-13.13h5.76c3.24,0,5.43,1.78,5.43,4.62,0,1.83-.95,3.28-2.51,4.08l3.38,4.44h-3.94l-2.82-3.8h-2.03ZM398.6,141.11c1.25,0,2.26-.7,2.26-1.78s-1-1.74-2.26-1.74h-2.41v3.52h2.41Z"/>
  </g>
  <path class="cls-1" d="M106.85,213.27l-1.44-10.09h-10.3l-4.5,10.09h-16.85l25.28-52.21h14.35l9.06,52.21h-15.61ZM103.88,191.21l-.83-7.04-2.85,7.04h3.68Z"/>
  <path class="cls-1" d="M111.13,163.75l8.13,46.83h-10.08l-1.44-10.09h-14.38l-4.5,10.09h-10.81l22.68-46.83h10.4ZM96.2,193.9h10.7l-2.42-20.45-8.28,20.45Z"/>
  <path class="cls-1" d="M146.2,213.86c-7.21,0-12.9-1.71-16.91-5.08-4.15-3.49-6.25-8.35-6.25-14.45,0-1.29.1-2.65.29-4.04l4.14-28.63h15.26l-4.18,29.25c-.09.72-.14,1.44-.14,2.1,0,2.36.64,4.04,1.95,5.13,1.46,1.22,3.37,1.81,5.85,1.81s4.5-.65,6.06-1.99c1.55-1.32,2.48-3.28,2.86-5.98l4.26-30.32h15.26l-4.52,31.89c-1.86,13.29-10.13,20.32-23.93,20.32Z"/>
  <path class="cls-1" d="M161.73,164.35l-3.93,28c-.47,3.35-1.73,5.9-3.78,7.66-2.05,1.75-4.65,2.63-7.81,2.63s-5.64-.81-7.58-2.43c-1.94-1.63-2.91-4.03-2.91-7.2,0-.78.06-1.6.17-2.48l3.74-26.18h-9.83l-3.81,26.31c-.18,1.28-.26,2.5-.26,3.67,0,5.3,1.76,9.43,5.29,12.4,3.53,2.96,8.59,4.45,15.18,4.45,12.51,0,19.6-6.01,21.27-18.01l4.09-28.82h-9.83Z"/>
  <polygon class="cls-1" points="183.7 213.27 189.13 174.81 174.47 174.81 176.31 161.65 221.26 161.65 219.42 174.81 204.39 174.81 198.96 213.27 183.7 213.27"/>
  <path class="cls-1" d="M178.66,164.35l-1.1,7.77h14.67l-5.43,38.46h9.82l5.43-38.46h15.03l1.09-7.77h-39.51Z"/>
  <path class="cls-1" d="M255.19,208.96l-12.69,2.2-7.97,1.38c2.8.89,5.84,1.33,9.12,1.33,7.41,0,13.75-2.08,18.88-6.18l-7.34,1.27ZM265.77,167.67c-4.73-4.39-10.87-6.61-18.24-6.61-8.49,0-15.66,2.74-21.31,8.14-5.68,5.44-8.55,12.33-8.55,20.5,0,7,2.5,12.85,7.45,17.4,1.78,1.64,3.74,2.98,5.88,4.03l5.19-.9,24.04-4.17,5.04-.88c5.13-5.31,7.72-12.15,7.72-20.35,0-6.95-2.43-12.72-7.22-17.16ZM243.72,199.95c-3.16,0-5.65-.96-7.6-2.94-1.96-1.99-2.91-4.53-2.91-7.78,0-3.94,1.33-7.24,4.07-10.07,2.72-2.81,5.86-4.18,9.59-4.18,3.12,0,5.61.97,7.61,2.96,2,1.98,2.97,4.46,2.97,7.55,0,4.09-1.32,7.45-4.04,10.29-2.68,2.8-5.85,4.17-9.69,4.17Z"/>
  <path class="cls-1" d="M242.5,211.16c.38.01.76.02,1.15.02,4.27,0,8.12-.74,11.54-2.22l-12.69,2.2ZM263.94,169.64c-4.23-3.92-9.71-5.89-16.41-5.89-7.81,0-14.29,2.47-19.45,7.4-5.15,4.93-7.72,11.11-7.72,18.55,0,6.24,2.19,11.38,6.58,15.42,2.65,2.44,5.73,4.14,9.25,5.11l24.04-4.17c.9-.66,1.76-1.4,2.59-2.21,4.98-4.89,7.48-11.23,7.48-19.02,0-6.2-2.12-11.26-6.36-15.19ZM255.35,197.64c-3.18,3.33-7.06,5-11.63,5-3.88,0-7.05-1.25-9.51-3.74s-3.69-5.72-3.69-9.67c0-4.63,1.61-8.61,4.83-11.94,3.22-3.33,7.06-5,11.52-5,3.83,0,7.01,1.25,9.51,3.74s3.76,5.65,3.76,9.46c0,4.77-1.6,8.82-4.79,12.15Z"/>
  <path class="cls-1" d="M304.12,213.86c-6.58,0-12.37-1.63-17.21-4.85l-1.48-.98,2.58-13.94,3.44,2.44c1.78,1.26,3.79,2.3,5.98,3.08,2.13.76,3.99,1.15,5.53,1.15,1.39,0,2.46-.28,3.19-.84.56-.43.78-.87.78-1.56,0-.48-.22-1.02-.66-1.63-.2-.28-1.23-1.42-5.99-4.35-4.13-2.55-6.82-4.92-8.22-7.26-1.42-2.36-2.14-4.85-2.14-7.41,0-4.77,1.87-8.81,5.56-12,3.58-3.09,8.08-4.66,13.38-4.66s10.02,1.35,14.56,4.01l1.6.94-2.37,14.24-3.51-2.53c-1.44-1.03-3.14-1.9-5.06-2.57-1.88-.66-3.5-.99-4.82-.99-1.25,0-2.23.29-2.98.87-.72.56-.81,1.07-.81,1.54,0,.33.26.74.48,1.02.13.16,1.02,1.12,5.84,3.99,4.12,2.46,6.87,4.89,8.39,7.42,1.53,2.54,2.3,5.24,2.3,8.02,0,4.83-1.71,8.9-5.07,12.1-3.33,3.16-7.79,4.76-13.27,4.76Z"/>
  <path class="cls-1" d="M304.62,172.9c1.23-.96,2.78-1.44,4.63-1.44,1.63,0,3.54.38,5.71,1.14,2.17.77,4.09,1.74,5.74,2.93l1.36-8.14c-4.15-2.43-8.55-3.64-13.21-3.64s-8.53,1.34-11.61,4.01c-3.09,2.67-4.64,5.99-4.64,9.96,0,2.07.59,4.08,1.76,6.02,1.17,1.94,3.61,4.06,7.33,6.35,3.71,2.3,5.97,3.99,6.75,5.07.78,1.08,1.17,2.15,1.17,3.21,0,1.52-.6,2.75-1.82,3.69-1.21.94-2.82,1.41-4.83,1.41-1.85,0-4-.44-6.43-1.31-2.44-.87-4.66-2.02-6.64-3.43l-1.49,8.05c4.41,2.93,9.65,4.4,15.72,4.4,4.79,0,8.59-1.34,11.42-4.02,2.82-2.69,4.23-6.07,4.23-10.15,0-2.29-.64-4.5-1.92-6.63-1.27-2.13-3.76-4.3-7.46-6.5-3.7-2.21-5.89-3.76-6.59-4.65-.69-.89-1.04-1.78-1.04-2.67,0-1.48.62-2.7,1.86-3.66Z"/>
  <polygon class="cls-1" points="356.12 213.27 358.83 194.44 340.68 194.44 338.03 213.27 322.77 213.27 330.05 161.65 345.31 161.65 342.73 179.96 360.8 179.96 363.37 161.65 378.63 161.65 371.39 213.27 356.12 213.27"/>
  <path class="cls-1" d="M365.71,164.35l-2.57,18.3h-23.51l2.58-18.3h-9.83l-6.52,46.23h9.83l2.66-18.83h23.59l-2.72,18.83h9.83l6.49-46.23h-9.83Z"/>
  <path class="cls-1" d="M426.05,167.67c-4.73-4.39-10.87-6.61-18.24-6.61-8.49,0-15.66,2.74-21.31,8.14-5.67,5.44-8.55,12.33-8.55,20.5,0,7,2.5,12.85,7.45,17.4,1.67,1.53,3.49,2.81,5.47,3.82l4.99-.87h0l25.11-4.35h.01s4.88-.85,4.88-.85c4.91-5.26,7.4-11.99,7.4-20.02,0-6.95-2.43-12.72-7.22-17.16ZM404,199.95c-3.16,0-5.65-.96-7.6-2.94-1.96-1.99-2.91-4.53-2.91-7.78,0-3.94,1.33-7.24,4.07-10.07,2.72-2.81,5.86-4.18,9.59-4.18,3.12,0,5.61.97,7.61,2.96,2,1.98,2.97,4.46,2.97,7.55,0,4.09-1.32,7.45-4.04,10.29-2.68,2.8-5.85,4.17-9.69,4.17ZM416.48,208.51l-14.93,2.59h-.02l-7.26,1.26c2.95,1.01,6.18,1.51,9.67,1.51,7.6,0,14.08-2.19,19.29-6.53l-6.74,1.17h-.01Z"/>
  <path class="cls-1" d="M424.22,169.64c-4.23-3.92-9.7-5.89-16.41-5.89-7.81,0-14.29,2.47-19.45,7.4-5.15,4.93-7.72,11.11-7.72,18.55,0,6.24,2.19,11.38,6.58,15.42,2.5,2.3,5.38,3.94,8.64,4.93h0l25.11-4.35h.01c.73-.57,1.43-1.19,2.11-1.85,4.98-4.89,7.48-11.23,7.48-19.02,0-6.2-2.12-11.26-6.36-15.19ZM415.63,197.64c-3.18,3.33-7.06,5-11.63,5-3.88,0-7.05-1.25-9.51-3.74-2.46-2.49-3.69-5.72-3.69-9.67,0-4.63,1.61-8.61,4.83-11.94,3.22-3.33,7.06-5,11.52-5,3.84,0,7.01,1.25,9.51,3.74s3.76,5.65,3.76,9.46c0,4.77-1.6,8.82-4.79,12.15ZM403.94,211.18c4.68,0,8.87-.89,12.54-2.67l-14.93,2.59c.78.05,1.58.08,2.39.08Z"/>
  <polygon class="cls-1" points="468.47 213.86 462.2 189.83 449.09 213.86 441.25 213.86 430.7 161.65 445.51 161.65 449.56 183.58 461.46 161.65 469.9 161.65 475.58 183.57 485.66 161.65 501.63 161.65 476.22 213.86 468.47 213.86"/>
  <path class="cls-1" d="M487.38,164.35l-12.5,27.2-7.06-27.2h-4.76l-14.76,27.2-5.03-27.2h-9.28l9.46,46.83h4.05l15.59-28.6,7.46,28.6h3.99l22.79-46.83h-9.95Z"/>
  <polygon class="cls-2" points="94.11 159.17 47.33 167.28 89.61 167.87 94.11 159.17"/>
  <polygon class="cls-2" points="88.07 169.93 41.28 178.04 83.57 178.63 88.07 169.93"/>
  <polygon class="cls-2" points="82.03 180.68 35.24 188.79 77.52 189.38 82.03 180.68"/>
  <polygon class="cls-2" points="75.98 191.44 29.19 199.55 71.48 200.14 75.98 191.44"/>
  <polygon class="cls-2" points="69.94 202.2 23.15 210.31 65.44 210.9 69.94 202.2"/>
  <polygon class="cls-2" points="267.49 206.83 262.99 215.53 220.7 214.94 234.53 212.54 242.5 211.16 255.19 208.96 262.53 207.69 267.49 206.83"/>
  <polygon class="cls-2" points="267.49 206.83 262.99 215.53 220.7 214.94 234.53 212.54 242.5 211.16 255.19 208.96 262.53 207.69 267.49 206.83"/>
  <polygon class="cls-2" points="426.16 206.83 421.66 215.53 379.37 214.94 394.27 212.36 401.53 211.1 401.55 211.1 416.48 208.51 416.49 208.51 423.23 207.34 426.16 206.83"/>
  <polygon class="cls-2" points="426.16 206.83 421.66 215.53 379.37 214.94 394.27 212.36 401.53 211.1 401.55 211.1 416.48 208.51 416.49 208.51 423.23 207.34 426.16 206.83"/>
  <path class="cls-2" d="M489.84,143.49c-4.27-16.08-16.24-42.26-119.21-44.49,0,0-54.76-24.73-81.04-28.75-82.52-12.63-114.63,26.44-152.03,26.09,17.72,10.31,138.21,4.3,165.62,12.95-16.24-7-94.24-15.94-116.35-14.25,23.98-14.19,42.02-25.16,101.41-20.28,16.49,1.36,50.88,14.21,61.49,23.63-.03,4.27-3.89,7.71-17.24,9.14,0,0,13.12,1.91,26.17-.92,13.05-2.84,69.54,2.33,88.51,9.71-19.47-.06-43.98,16.02-37.78,38.37.48-2.82,4.16-28.62,36.54-33.57,28.18-4.31,43.9,22.38,43.9,22.38ZM326.17,94.73c1.76-.15,3.52-.17,5.22-.05-6.46,1.14-9.19,4.14-9.19,4.14,0,0,3.05,4.36,10.13,5.17-1.43.25-2.89.41-4.28.48-9.52.46-13.52-5.28-13.52-5.28,0,0,3.41-3.75,11.63-4.46Z"/>
  <path class="cls-1" d="M384.28,69c3.03,1.68,5.88,3.61,8.56,5.76l6.93-3.02c-3.44-2.39-7.11-4.5-10.99-6.3l-4.5,3.56ZM402.83,73.98c3.33,2.58,6.42,5.46,9.24,8.61l-10.01,1.38c-2.14-2.63-4.45-5.05-6.92-7.25l7.69-2.74ZM373.24,60.08c4.21,1.01,8.26,2.31,12.12,3.88l-3.83,3.61c-3.19-1.57-6.57-2.89-10.13-3.95l1.84-3.54ZM345.62,57.65c1.73-.08,3.44-.12,5.13-.12l.6,2.85c-3.3-.15-6.7-.15-10.24.02-2.4.12-4.77.32-7.09.59l-1.52-1.87c4.23-.75,8.62-1.25,13.11-1.47ZM414.83,85.87c2.63,3.33,5,6.92,7.05,10.78-3.86-.57-8.35-1.6-12.68-2.06-1.56-2.81-3.25-5.45-5.07-7.93l10.69-.79ZM354.65,57.6c5.15.19,10.13.75,14.93,1.69l-1.35,3.47c-4.19-1.05-8.63-1.77-13.31-2.15l-.28-3.01ZM329.21,61.67c-7.57,1.25-14.68,3.3-21.12,6.01-.3-.09-.59-.17-.88-.25,6.14-3.12,13.03-5.62,20.45-7.32l1.56,1.56Z"/>
  <path class="cls-3" d="M374.97,56.75c4.64,1.15,9.1,2.63,13.35,4.42l9.35-8.81c-5.93-1.7-12.12-2.94-18.51-3.68l-4.2,8.07ZM404.08,69.87c-3.73-2.63-7.75-4.98-12.03-7.02l11.09-8.77c6.46,2.22,12.57,4.99,18.24,8.26l-17.3,7.53ZM417.34,81.87c-2.95-3.43-6.28-6.61-9.95-9.51l19.15-6.82c5.75,3.8,10.96,8.14,15.53,12.93l-24.74,3.41ZM323.1,55.56l1.88,1.88c-7.68,2.11-14.86,5.1-21.37,8.84-.39-.08-.78-.15-1.17-.23,6.31-4.14,13.24-7.66,20.66-10.49ZM348.96,49.01l1.03,4.89c-1.16.02-2.32.05-3.49.11-5.64.27-11.11,1.01-16.39,2.16l-1.96-2.41c6.61-2.17,13.57-3.77,20.8-4.75ZM370.92,55.84c-5.35-1.08-10.9-1.73-16.6-1.89l-.5-5.49c1.87-.18,3.74-.33,5.64-.42,4.89-.24,9.71-.18,14.43.16l-2.97,7.65ZM446.53,83.53c5.12,6.33,9.18,13.32,11.95,20.8-8.35-2.75-18.62-5.15-31.29-6.98-1.85-4.18-4.19-8.16-6.96-11.88l26.3-1.94Z"/>
  <polygon class="cls-2" points="354.2 84.93 362.28 88.42 430.15 73.93 354.2 84.93"/>
</svg>