<?xml version="1.0" encoding="UTF-8"?>
<svg id="Layer_1" data-name="Layer 1" xmlns="http://www.w3.org/2000/svg" viewBox="0 0 436.95 88.62">
  <defs>
    <style>
      .cls-1 {
        fill: #000;
      }

      .cls-1, .cls-2 {
        stroke-width: 0px;
      }

      .cls-2 {
        fill: #7d0f10;
      }
    </style>
  </defs>
  <g>
    <g>
      <polygon class="cls-2" points="137.18 24.23 136.54 23.77 132.69 12.09 128.83 23.77 128.19 24.23 122.85 24.23 122.21 23.76 115 1.34 115.64 .46 121.5 .46 122.15 .94 125.71 12.8 129.76 .98 129.88 1.02 130.39 .46 134.98 .46 135.62 .91 139.66 12.77 143.22 .94 143.87 .46 149.74 .46 150.38 1.34 143.16 23.76 142.52 24.23 137.18 24.23"/>
      <polygon class="cls-2" points="152.36 24.1 151.69 23.43 151.69 1.13 152.36 .46 169.21 .46 169.88 1.13 169.88 5.95 169.21 6.62 158.57 6.62 158.57 9.34 167.77 9.34 168.44 10.02 168.44 14.74 167.77 15.41 158.57 15.41 158.57 17.94 169.21 17.94 169.88 18.61 169.88 23.43 169.21 24.1 152.36 24.1"/>
      <polygon class="cls-2" points="172.36 24.1 171.69 23.43 171.69 1.13 172.36 .46 177.9 .46 178.57 1.13 178.57 17.87 188.92 17.87 189.59 18.54 189.59 23.43 188.92 24.1 172.36 24.1"/>
      <path class="cls-2" d="M201.71,24.56c-7.11,0-12.48-5.28-12.48-12.28s5.36-12.28,12.48-12.28c6.35,0,11.11,4.14,11.85,10.3l-.67.75h-5.67l-.66-.52c-.58-2.58-2.31-4-4.89-4-3.23,0-5.49,2.37-5.49,5.76s2.26,5.76,5.49,5.76c2.57,0,4.31-1.42,4.89-4l.66-.52h5.67l.67.75c-.74,6.16-5.5,10.3-11.85,10.3Z"/>
      <path class="cls-2" d="M227.57,24.56c-7,0-12.48-5.39-12.48-12.28s5.48-12.28,12.48-12.28,12.51,5.39,12.51,12.28-5.49,12.28-12.51,12.28ZM227.57,6.49c-3.1,0-5.53,2.54-5.53,5.79s2.43,5.79,5.53,5.79,5.53-2.54,5.53-5.79-2.43-5.79-5.53-5.79Z"/>
      <polygon class="cls-2" points="261.32 24.1 260.64 23.43 260.64 14.52 256.93 20.25 256.78 20.15 256.36 20.59 253.28 20.59 252.85 20.16 252.72 20.25 248.98 14.47 249 23.43 248.33 24.1 242.79 24.1 242.12 23.43 242.12 1.13 242.79 .46 246.89 .46 247.45 .76 254.82 11.82 262.17 .76 262.73 .46 266.86 .46 267.53 1.13 267.53 23.43 266.86 24.1 261.32 24.1"/>
      <polygon class="cls-2" points="270.79 24.1 270.12 23.43 270.12 1.13 270.79 .46 287.64 .46 288.32 1.13 288.32 5.95 287.64 6.62 277 6.62 277 9.34 286.2 9.34 286.87 10.02 286.87 14.74 286.2 15.41 277 15.41 277 17.94 287.64 17.94 288.32 18.61 288.32 23.43 287.64 24.1 270.79 24.1"/>
    </g>
    <g>
      <g>
        <path class="cls-1" d="M301.62,2.92v7.7h-2.46V2.92h-3.16V.72h8.76v2.2h-3.14Z"/>
        <path class="cls-1" d="M315.51,5.67c0,2.88-2.26,5.15-5.25,5.15s-5.24-2.27-5.24-5.15,2.26-5.15,5.24-5.15,5.25,2.27,5.25,5.15ZM313.01,5.67c0-1.56-1.15-2.87-2.75-2.87s-2.75,1.31-2.75,2.87,1.15,2.87,2.75,2.87,2.75-1.31,2.75-2.87Z"/>
      </g>
      <g>
        <path class="cls-1" d="M307,18.87c0,2.88-2.26,5.15-5.25,5.15s-5.24-2.27-5.24-5.15,2.26-5.15,5.24-5.15,5.25,2.27,5.25,5.15ZM304.5,18.87c0-1.56-1.15-2.87-2.75-2.87s-2.75,1.31-2.75,2.87,1.15,2.87,2.75,2.87,2.75-1.31,2.75-2.87Z"/>
        <path class="cls-1" d="M317.47,19.21c0,3.07-1.78,4.83-4.61,4.83s-4.6-1.76-4.6-4.83v-5.28h2.47v5.33c0,1.51.83,2.49,2.12,2.49s2.14-.98,2.14-2.49v-5.33h2.47v5.28Z"/>
        <path class="cls-1" d="M321.53,20.95v2.87h-2.46v-9.9h4.34c2.44,0,4.09,1.34,4.09,3.48,0,1.38-.71,2.47-1.89,3.07l2.55,3.35h-2.97l-2.12-2.87h-1.53ZM323.35,18.74c.95,0,1.7-.52,1.7-1.34s-.76-1.31-1.7-1.31h-1.82v2.65h1.82Z"/>
      </g>
    </g>
  </g>
  <g>
    <path class="cls-1" d="M32.92,34.15L7.64,86.36h16.85l4.5-10.09h10.3l1.44,10.09h15.61l-9.06-52.21h-14.35ZM34.07,64.3l2.85-7.04.83,7.04h-3.68Z"/>
    <path class="cls-1" d="M93.27,34.75l-4.26,30.32c-.37,2.7-1.31,4.66-2.86,5.98-1.56,1.34-3.55,1.99-6.06,1.99s-4.4-.59-5.85-1.81c-1.31-1.09-1.95-2.77-1.95-5.13,0-.66.05-1.38.14-2.1l4.18-29.25h-15.26l-4.14,28.63c-.19,1.39-.29,2.75-.29,4.04,0,6.1,2.1,10.97,6.25,14.45,4.01,3.37,9.7,5.08,16.91,5.08,13.8,0,22.08-7.03,23.93-20.32l4.52-31.89h-15.26Z"/>
    <polygon class="cls-1" points="155.14 34.75 110.19 34.75 108.34 47.91 123 47.91 117.57 86.36 132.83 86.36 138.26 47.91 153.29 47.91 155.14 34.75"/>
    <path class="cls-1" d="M199.64,40.76c-4.73-4.39-10.87-6.61-18.24-6.61-8.49,0-15.66,2.74-21.31,8.14-5.68,5.44-8.55,12.33-8.55,20.5,0,7,2.5,12.85,7.45,17.4,1.78,1.64,3.74,2.98,5.88,4.03l5.19-.9,24.04-4.17,5.04-.88c5.13-5.31,7.72-12.15,7.72-20.35,0-6.95-2.43-12.72-7.22-17.16ZM177.59,73.04c-3.16,0-5.65-.96-7.6-2.94-1.96-1.99-2.91-4.53-2.91-7.78,0-3.94,1.33-7.24,4.07-10.07,2.72-2.81,5.86-4.18,9.59-4.18,3.12,0,5.61.97,7.61,2.96,2,1.98,2.97,4.46,2.97,7.55,0,4.09-1.32,7.45-4.04,10.29-2.68,2.8-5.85,4.17-9.69,4.17Z"/>
    <path class="cls-1" d="M176.37,84.25l-7.97,1.38c2.8.89,5.84,1.33,9.12,1.33,7.41,0,13.75-2.08,18.88-6.18l-7.34,1.27-12.69,2.2Z"/>
    <path class="cls-1" d="M240.14,48.12c.76-.59,1.73-.87,2.98-.87,1.32,0,2.94.33,4.82.99,1.92.67,3.62,1.54,5.06,2.57l3.51,2.53,2.37-14.24-1.6-.94c-4.55-2.66-9.45-4.01-14.56-4.01s-9.8,1.57-13.38,4.66c-3.69,3.19-5.56,7.23-5.56,12,0,2.56.72,5.05,2.14,7.41,1.41,2.34,4.1,4.71,8.22,7.26,4.75,2.94,5.79,4.08,5.99,4.35.44.61.66,1.16.66,1.63,0,.69-.22,1.13-.78,1.56-.72.56-1.8.84-3.19.84-1.54,0-3.4-.39-5.53-1.15-2.19-.78-4.21-1.82-5.98-3.08l-3.44-2.44-2.58,13.94,1.48.98c4.84,3.22,10.63,4.85,17.21,4.85,5.48,0,9.94-1.6,13.27-4.76,3.37-3.2,5.07-7.27,5.07-12.1,0-2.78-.78-5.48-2.3-8.02-1.53-2.54-4.27-4.97-8.39-7.42-4.82-2.87-5.71-3.82-5.84-3.99-.22-.28-.48-.68-.48-1.02,0-.47.1-.98.81-1.54Z"/>
    <polygon class="cls-1" points="297.25 34.75 294.68 53.05 276.6 53.05 279.18 34.75 263.92 34.75 256.64 86.36 271.9 86.36 274.56 67.53 292.7 67.53 289.99 86.36 305.26 86.36 312.5 34.75 297.25 34.75"/>
    <path class="cls-1" d="M359.92,40.76c-4.73-4.39-10.87-6.61-18.24-6.61-8.49,0-15.66,2.74-21.31,8.14-5.67,5.44-8.55,12.33-8.55,20.5,0,7,2.5,12.85,7.45,17.4,1.67,1.53,3.49,2.81,5.47,3.82l4.99-.87h0l25.11-4.35h.01s4.88-.85,4.88-.85c4.91-5.26,7.4-11.99,7.4-20.02,0-6.95-2.43-12.72-7.22-17.16ZM337.87,73.04c-3.16,0-5.65-.96-7.6-2.94-1.96-1.99-2.91-4.53-2.91-7.78,0-3.94,1.33-7.24,4.07-10.07,2.72-2.81,5.86-4.18,9.59-4.18,3.12,0,5.61.97,7.61,2.96,2,1.98,2.97,4.46,2.97,7.55,0,4.09-1.32,7.45-4.04,10.29-2.68,2.8-5.85,4.17-9.69,4.17Z"/>
    <path class="cls-1" d="M350.35,81.6l-14.93,2.59h-.02l-7.26,1.26c2.95,1.01,6.18,1.51,9.67,1.51,7.6,0,14.08-2.19,19.29-6.53l-6.74,1.17h-.01Z"/>
    <polygon class="cls-1" points="419.53 34.75 409.46 56.66 403.77 34.75 395.33 34.75 383.44 56.67 379.38 34.75 364.57 34.75 375.13 86.96 382.97 86.96 396.08 62.92 402.34 86.96 410.09 86.96 435.51 34.75 419.53 34.75"/>
  </g>
  <polygon class="cls-2" points="201.36 79.92 196.86 88.62 154.57 88.03 168.4 85.63 176.37 84.25 189.06 82.05 196.4 80.78 201.36 79.92"/>
  <polygon class="cls-2" points="201.36 79.92 196.86 88.62 154.57 88.03 168.4 85.63 176.37 84.25 189.06 82.05 196.4 80.78 201.36 79.92"/>
  <polygon class="cls-2" points="360.03 79.92 355.53 88.62 313.24 88.03 328.14 85.45 335.4 84.19 335.42 84.19 350.35 81.6 350.36 81.6 357.1 80.43 360.03 79.92"/>
  <polygon class="cls-2" points="360.03 79.92 355.53 88.62 313.24 88.03 328.14 85.45 335.4 84.19 335.42 84.19 350.35 81.6 350.36 81.6 357.1 80.43 360.03 79.92"/>
</svg>